<svg id="visual" viewBox="0 0 960 540" width="960" height="540" xmlns="http://www.w3.org/2000/svg" xmlns:xlink="http://www.w3.org/1999/xlink" version="1.1"><rect x="0" y="0" width="960" height="540" fill="#ffffff"></rect><path d="M0 401L22.8 399.3C45.7 397.7 91.3 394.3 137 392C182.7 389.7 228.3 388.3 274 380.5C319.7 372.7 365.3 358.3 411.2 350.7C457 343 503 342 548.8 338C594.7 334 640.3 327 686 331.2C731.7 335.3 777.3 350.7 823 356.2C868.7 361.7 914.3 357.3 937.2 355.2L960 353L960 541L937.2 541C914.3 541 868.7 541 823 541C777.3 541 731.7 541 686 541C640.3 541 594.7 541 548.8 541C503 541 457 541 411.2 541C365.3 541 319.7 541 274 541C228.3 541 182.7 541 137 541C91.3 541 45.7 541 22.8 541L0 541Z" fill="#001228"></path><path d="M0 355L22.8 366.2C45.7 377.3 91.3 399.7 137 403.5C182.7 407.3 228.3 392.7 274 388.8C319.7 385 365.3 392 411.2 392C457 392 503 385 548.8 384.8C594.7 384.7 640.3 391.3 686 394.2C731.7 397 777.3 396 823 397C868.7 398 914.3 401 937.2 402.5L960 404L960 541L937.2 541C914.3 541 868.7 541 823 541C777.3 541 731.7 541 686 541C640.3 541 594.7 541 548.8 541C503 541 457 541 411.2 541C365.3 541 319.7 541 274 541C228.3 541 182.7 541 137 541C91.3 541 45.7 541 22.8 541L0 541Z" fill="#020e22"></path><path d="M0 412L22.8 414.7C45.7 417.3 91.3 422.7 137 426.7C182.7 430.7 228.3 433.3 274 431.7C319.7 430 365.3 424 411.2 422.8C457 421.7 503 425.3 548.8 429.5C594.7 433.7 640.3 438.3 686 442.8C731.7 447.3 777.3 451.7 823 444.7C868.7 437.7 914.3 419.3 937.2 410.2L960 401L960 541L937.2 541C914.3 541 868.7 541 823 541C777.3 541 731.7 541 686 541C640.3 541 594.7 541 548.8 541C503 541 457 541 411.2 541C365.3 541 319.7 541 274 541C228.3 541 182.7 541 137 541C91.3 541 45.7 541 22.8 541L0 541Z" fill="#030a1d"></path><path d="M0 474L22.8 474.3C45.7 474.7 91.3 475.3 137 472.3C182.7 469.3 228.3 462.7 274 464.7C319.7 466.7 365.3 477.3 411.2 477.5C457 477.7 503 467.3 548.8 465C594.7 462.7 640.3 468.3 686 470.8C731.7 473.3 777.3 472.7 823 466.7C868.7 460.7 914.3 449.3 937.2 443.7L960 438L960 541L937.2 541C914.3 541 868.7 541 823 541C777.3 541 731.7 541 686 541C640.3 541 594.7 541 548.8 541C503 541 457 541 411.2 541C365.3 541 319.7 541 274 541C228.3 541 182.7 541 137 541C91.3 541 45.7 541 22.8 541L0 541Z" fill="#020517"></path><path d="M0 496L22.8 497.8C45.7 499.7 91.3 503.3 137 503.7C182.7 504 228.3 501 274 499.2C319.7 497.3 365.3 496.7 411.2 498.5C457 500.3 503 504.7 548.8 505.3C594.7 506 640.3 503 686 503C731.7 503 777.3 506 823 501.8C868.7 497.7 914.3 486.3 937.2 480.7L960 475L960 541L937.2 541C914.3 541 868.7 541 823 541C777.3 541 731.7 541 686 541C640.3 541 594.7 541 548.8 541C503 541 457 541 411.2 541C365.3 541 319.7 541 274 541C228.3 541 182.7 541 137 541C91.3 541 45.7 541 22.8 541L0 541Z" fill="#000111"></path></svg>