<svg id="visual" viewBox="0 0 960 940" width="960" height="940" xmlns="http://www.w3.org/2000/svg" xmlns:xlink="http://www.w3.org/1999/xlink" version="1.1"><rect x="0" y="0" width="960" height="940" fill="#fff"></rect><path d="M0 570L22.8 573.5C45.7 577 91.3 584 137 567.3C182.7 550.7 228.3 510.3 274 494.7C319.7 479 365.3 488 411.2 503.7C457 519.3 503 541.7 548.8 545.8C594.7 550 640.3 536 686 543.5C731.7 551 777.3 580 823 571.5C868.7 563 914.3 517 937.2 494L960 471L960 941L937.2 941C914.3 941 868.7 941 823 941C777.3 941 731.7 941 686 941C640.3 941 594.7 941 548.8 941C503 941 457 941 411.2 941C365.3 941 319.7 941 274 941C228.3 941 182.7 941 137 941C91.3 941 45.7 941 22.8 941L0 941Z" fill="#fbbf77"></path><path d="M0 612L22.8 596.2C45.7 580.3 91.3 548.7 137 549C182.7 549.3 228.3 581.7 274 599.7C319.7 617.7 365.3 621.3 411.2 613.3C457 605.3 503 585.7 548.8 571.5C594.7 557.3 640.3 548.7 686 558C731.7 567.3 777.3 594.7 823 605.3C868.7 616 914.3 610 937.2 607L960 604L960 941L937.2 941C914.3 941 868.7 941 823 941C777.3 941 731.7 941 686 941C640.3 941 594.7 941 548.8 941C503 941 457 941 411.2 941C365.3 941 319.7 941 274 941C228.3 941 182.7 941 137 941C91.3 941 45.7 941 22.8 941L0 941Z" fill="#fbc07a"></path><path d="M0 610L22.8 611.8C45.7 613.7 91.3 617.3 137 625C182.7 632.7 228.3 644.3 274 629.7C319.7 615 365.3 574 411.2 554.3C457 534.7 503 536.3 548.8 558.7C594.7 581 640.3 624 686 642C731.7 660 777.3 653 823 652.2C868.7 651.3 914.3 656.7 937.2 659.3L960 662L960 941L937.2 941C914.3 941 868.7 941 823 941C777.3 941 731.7 941 686 941C640.3 941 594.7 941 548.8 941C503 941 457 941 411.2 941C365.3 941 319.7 941 274 941C228.3 941 182.7 941 137 941C91.3 941 45.7 941 22.8 941L0 941Z" fill="#fcc17d"></path><path d="M0 635L22.8 628.7C45.7 622.3 91.3 609.7 137 610C182.7 610.3 228.3 623.7 274 630.7C319.7 637.7 365.3 638.3 411.2 637.8C457 637.3 503 635.7 548.8 640.3C594.7 645 640.3 656 686 656.5C731.7 657 777.3 647 823 649.7C868.7 652.3 914.3 667.7 937.2 675.3L960 683L960 941L937.2 941C914.3 941 868.7 941 823 941C777.3 941 731.7 941 686 941C640.3 941 594.7 941 548.8 941C503 941 457 941 411.2 941C365.3 941 319.7 941 274 941C228.3 941 182.7 941 137 941C91.3 941 45.7 941 22.8 941L0 941Z" fill="#fcc280"></path><path d="M0 609L22.8 614.7C45.7 620.3 91.3 631.7 137 637.5C182.7 643.3 228.3 643.7 274 639C319.7 634.3 365.3 624.7 411.2 623.8C457 623 503 631 548.8 635.2C594.7 639.3 640.3 639.7 686 640.7C731.7 641.7 777.3 643.3 823 653.3C868.7 663.3 914.3 681.7 937.2 690.8L960 700L960 941L937.2 941C914.3 941 868.7 941 823 941C777.3 941 731.7 941 686 941C640.3 941 594.7 941 548.8 941C503 941 457 941 411.2 941C365.3 941 319.7 941 274 941C228.3 941 182.7 941 137 941C91.3 941 45.7 941 22.8 941L0 941Z" fill="#fdc383"></path><path d="M0 669L22.8 681.2C45.7 693.3 91.3 717.7 137 727.5C182.7 737.3 228.3 732.7 274 724.8C319.7 717 365.3 706 411.2 702.8C457 699.7 503 704.3 548.8 697.3C594.7 690.3 640.3 671.7 686 673.8C731.7 676 777.3 699 823 705.3C868.7 711.7 914.3 701.3 937.2 696.2L960 691L960 941L937.2 941C914.3 941 868.7 941 823 941C777.3 941 731.7 941 686 941C640.3 941 594.7 941 548.8 941C503 941 457 941 411.2 941C365.3 941 319.7 941 274 941C228.3 941 182.7 941 137 941C91.3 941 45.7 941 22.8 941L0 941Z" fill="#fdc486"></path><path d="M0 719L22.8 727.3C45.7 735.7 91.3 752.3 137 762.7C182.7 773 228.3 777 274 774.8C319.7 772.7 365.3 764.3 411.2 762.7C457 761 503 766 548.8 756.7C594.7 747.3 640.3 723.7 686 709.8C731.7 696 777.3 692 823 691.7C868.7 691.3 914.3 694.7 937.2 696.3L960 698L960 941L937.2 941C914.3 941 868.7 941 823 941C777.3 941 731.7 941 686 941C640.3 941 594.7 941 548.8 941C503 941 457 941 411.2 941C365.3 941 319.7 941 274 941C228.3 941 182.7 941 137 941C91.3 941 45.7 941 22.8 941L0 941Z" fill="#fdc68a"></path><path d="M0 723L22.8 731.8C45.7 740.7 91.3 758.3 137 769.7C182.7 781 228.3 786 274 785.3C319.7 784.7 365.3 778.3 411.2 777.5C457 776.7 503 781.3 548.8 783C594.7 784.7 640.3 783.3 686 779C731.7 774.7 777.3 767.3 823 759.5C868.7 751.7 914.3 743.3 937.2 739.2L960 735L960 941L937.2 941C914.3 941 868.7 941 823 941C777.3 941 731.7 941 686 941C640.3 941 594.7 941 548.8 941C503 941 457 941 411.2 941C365.3 941 319.7 941 274 941C228.3 941 182.7 941 137 941C91.3 941 45.7 941 22.8 941L0 941Z" fill="#fec78d"></path><path d="M0 762L22.8 766C45.7 770 91.3 778 137 782.7C182.7 787.3 228.3 788.7 274 788.8C319.7 789 365.3 788 411.2 792.3C457 796.7 503 806.3 548.8 807.5C594.7 808.7 640.3 801.3 686 799.7C731.7 798 777.3 802 823 798.3C868.7 794.7 914.3 783.3 937.2 777.7L960 772L960 941L937.2 941C914.3 941 868.7 941 823 941C777.3 941 731.7 941 686 941C640.3 941 594.7 941 548.8 941C503 941 457 941 411.2 941C365.3 941 319.7 941 274 941C228.3 941 182.7 941 137 941C91.3 941 45.7 941 22.8 941L0 941Z" fill="#fec890"></path><path d="M0 833L22.8 834.2C45.7 835.3 91.3 837.7 137 839.5C182.7 841.3 228.3 842.7 274 837.2C319.7 831.7 365.3 819.3 411.2 814.3C457 809.3 503 811.7 548.8 820C594.7 828.3 640.3 842.7 686 847.8C731.7 853 777.3 849 823 844.2C868.7 839.3 914.3 833.7 937.2 830.8L960 828L960 941L937.2 941C914.3 941 868.7 941 823 941C777.3 941 731.7 941 686 941C640.3 941 594.7 941 548.8 941C503 941 457 941 411.2 941C365.3 941 319.7 941 274 941C228.3 941 182.7 941 137 941C91.3 941 45.7 941 22.8 941L0 941Z" fill="#fec993"></path><path d="M0 837L22.8 844.5C45.7 852 91.3 867 137 871.3C182.7 875.7 228.3 869.3 274 864.5C319.7 859.7 365.3 856.3 411.2 860.7C457 865 503 877 548.8 876.5C594.7 876 640.3 863 686 856.2C731.7 849.3 777.3 848.7 823 849.7C868.7 850.7 914.3 853.3 937.2 854.7L960 856L960 941L937.2 941C914.3 941 868.7 941 823 941C777.3 941 731.7 941 686 941C640.3 941 594.7 941 548.8 941C503 941 457 941 411.2 941C365.3 941 319.7 941 274 941C228.3 941 182.7 941 137 941C91.3 941 45.7 941 22.8 941L0 941Z" fill="#ffcb96"></path><path d="M0 900L22.8 897C45.7 894 91.3 888 137 889.3C182.7 890.7 228.3 899.3 274 898.5C319.7 897.7 365.3 887.3 411.2 886.2C457 885 503 893 548.8 894.2C594.7 895.3 640.3 889.7 686 885.7C731.7 881.7 777.3 879.3 823 878.7C868.7 878 914.3 879 937.2 879.5L960 880L960 941L937.2 941C914.3 941 868.7 941 823 941C777.3 941 731.7 941 686 941C640.3 941 594.7 941 548.8 941C503 941 457 941 411.2 941C365.3 941 319.7 941 274 941C228.3 941 182.7 941 137 941C91.3 941 45.7 941 22.8 941L0 941Z" fill="#ffcc99"></path></svg>